<?xml version="1.0" encoding="UTF-8"?>
<svg enable-background="new 0 0 1024 1024" version="1.1" viewBox="0 0 1024 1024" xml:space="preserve" xmlns="http://www.w3.org/2000/svg">
<style type="text/css">
	.st0{fill:url(#a);}
	.st1{fill:#320078;}
	.st2{fill:#6E5AFF;}
</style>
<linearGradient id="a" x1="258.46" x2="765.54" y1="72.852" y2="951.15" gradientUnits="userSpaceOnUse">
	<stop stop-color="#FAA0FF" offset=".2"/>
	<stop stop-color="#D78CDC" offset="1"/>
</linearGradient>
<circle class="st0" cx="512" cy="512" r="507"/>
<circle class="st1" cx="355.5" cy="709.5" r="82"/>
<circle class="st1" cx="680" cy="384" r="97"/>
<path class="st1" d="m680 192c-106.04 0-192 85.961-192 192 0 0.802 0.021 1.598 0.03 2.398l-126.64 179.73c-1.955-0.079-3.917-0.13-5.891-0.13-79.253 0-143.5 64.247-143.5 143.5s64.247 143.5 143.5 143.5 143.5-64.247 143.5-143.5c0-3.692-0.14-7.352-0.414-10.974l168.02-123c4.425 0.305 8.888 0.472 13.39 0.472 106.04 0 192-85.961 192-192s-85.961-192-192-192zm-324.5 630.5c-62.408 0-113-50.592-113-113s50.592-113 113-113 113 50.592 113 113-50.592 113-113 113zm324.5-305.5c-73.454 0-133-59.546-133-133s59.546-133 133-133 133 59.546 133 133-59.546 133-133 133z"/>
<path class="st1" d="m408.23 646.76 0.031-0.074-0.23-0.098c-12.384-10.533-27.93-17.453-45.026-19.112l-356.74-151.43c-0.832 11.877-1.265 23.864-1.265 35.953 0 48.2 6.727 94.828 19.292 139l272.56 115.7c14.842 14.959 35.411 24.227 58.149 24.227 45.243 0 81.92-36.677 81.92-81.92-1e-3 -24.915-11.139-47.216-28.69-62.241z"/>
<path class="st2" d="M512,0C229.23,0,0,229.23,0,512s229.23,512,512,512s512-229.23,512-512S794.77,0,512,0z M512,977  C255.188,977,47,768.812,47,512S255.188,47,512,47s465,208.188,465,465S768.812,977,512,977z"/>
</svg>
